<svg width="474" height="561" viewBox="0 0 474 561" fill="none" xmlns="http://www.w3.org/2000/svg">
<g filter="url(#filter0_d_0_1)">
<path d="M30 49.8704C30 47.1792 32.1301 44.9708 34.8196 44.8736L413.82 31.1871C416.65 31.0849 419 33.3516 419 36.1838V516.878C419 519.687 416.687 521.944 413.88 521.877L34.8797 512.752C32.1659 512.687 30 510.468 30 507.754V49.8704Z" fill="white"/>
</g>
<path fill-rule="evenodd" clip-rule="evenodd" d="M417.727 12.654C417.807 14.7509 416.193 16.5162 414.124 16.5967L12.5485 32.2216C9.72951 32.3313 7.5 34.6788 7.5 37.5373V521.315C7.5 524.205 9.77644 526.566 12.6274 526.634L425.338 536.402C427.408 536.451 429.047 538.191 428.999 540.289C428.951 542.387 427.233 544.048 425.162 543.999L12.4523 534.231C5.52853 534.067 0 528.333 0 521.315V37.5373C0 30.5952 5.41452 24.8942 12.2608 24.6278L413.836 9.00285C415.906 8.92233 417.648 10.557 417.727 12.654Z" fill="#5C5EB5"/>
<defs>
<filter id="filter0_d_0_1" x="15" y="0.183594" width="459" height="560.694" filterUnits="userSpaceOnUse" color-interpolation-filters="sRGB">
<feFlood flood-opacity="0" result="BackgroundImageFix"/>
<feColorMatrix in="SourceAlpha" type="matrix" values="0 0 0 0 0 0 0 0 0 0 0 0 0 0 0 0 0 0 127 0" result="hardAlpha"/>
<feOffset dx="20" dy="4"/>
<feGaussianBlur stdDeviation="17.5"/>
<feComposite in2="hardAlpha" operator="out"/>
<feColorMatrix type="matrix" values="0 0 0 0 0.693561 0 0 0 0 0.700654 0 0 0 0 0.980846 0 0 0 0.24 0"/>
<feBlend mode="normal" in2="BackgroundImageFix" result="effect1_dropShadow_0_1"/>
<feBlend mode="normal" in="SourceGraphic" in2="effect1_dropShadow_0_1" result="shape"/>
</filter>
</defs>
</svg>
